<?xml version="1.0" encoding="utf-8"?>
<?xml-stylesheet type="text/xsl" href="rss1.xsl"?>
<rss version="2.0" xmlns:atom="http://www.w3.org/2005/Atom" xmlns:content="http://purl.org/rss/1.0/modules/content/" xmlns:dc="http://purl.org/dc/elements/1.1/" xmlns:media="http://search.yahoo.com/mrss/">
<channel>
 <title>Getty</title>
 <link>http://www.gettyimg.com/</link>
 <atom:link href="http://www.gettyimg.com/" rel="self" type="application/rss+xml" />

 
                <item>
                <title><![CDATA[【Albums (lossy)】Dolby Atmos - STAYC - STAYDOM - EP [E-AC3-JOC | 16bits/48kHz | 5.1 | 768kbits]]]></title>
                <link><![CDATA[https://sharemania.us/threads/stayc-staydom-ep-e-ac3-joc-16bits-48khz-5-1-768kbits.242245/]]></link>
                <description><![CDATA[<article>
<blockquote class="messageText SelectQuoteContainer ugc baseHtml">
<img src="https://a1.mzstatic.com/r40/Music125/v4/ff/f0/44/fff044b5-8d7c-b728-76be-5b214c5fecf0/STAYC_STAYDOM_JPG.jpg" class="bbCodeImage LbImage" alt="[​IMG]" data-url="https://a1.mzstatic.com/r40/Music125/v4/ff/f0/44/fff044b5-8d7c-b728-76be-5b214c5fecf0/STAYC_STAYDOM_JPG.jpg" style=""> <br>
<br>
<div class="bbCodeBlock bbCodeVfcHH HiddenContent">
<div class="attribution type">Hidden Content:</div>
<blockquote>You must reply before you can see the hidden data contained here.</blockquote>
</div>
<div class="messageTextEndMarker">&nbsp;</div>
</blockquote>
</article>]]></description>
                <author><![CDATA[Xander454]]></author>
                </item>

                
                <item>
                <title><![CDATA[【Singles (lossy)】Delete]]></title>
                <link><![CDATA[https://sharemania.us/threads/delete.242244/]]></link>
                <description><![CDATA[<article>
<blockquote class="messageText SelectQuoteContainer ugc baseHtml">
delete
<div class="messageTextEndMarker">&nbsp;</div>
</blockquote>
</article>]]></description>
                <author><![CDATA[Xander454]]></author>
                </item>

                
                <item>
                <title><![CDATA[【SD】DVD - Jonas Brothers - I Wanna Be Like You (5.1 Audio DVD Promo)]]></title>
                <link><![CDATA[https://sharemania.us/threads/jonas-brothers-i-wanna-be-like-you-5-1-audio-dvd-promo.242227/]]></link>
                <description><![CDATA[<article>
<blockquote class="messageText SelectQuoteContainer ugc baseHtml">
<div style="text-align: center"><img src="http://imgfz.com/i/2HRWAxc.jpeg" class="bbCodeImage LbImage" alt="[​IMG]" data-url="http://imgfz.com/i/2HRWAxc.jpeg" style=""><br>
<br>
<span style="color: #5900b3"><span style="text-decoration: underline"><span style="font-size: 26px"><i><b>Jonas Brothers - </b></i></span></span><i><b><span style="text-decoration: underline"><span style="font-size: 26px">I Wanna Be Like You</span></span></b></i></span><br>
<br>
<i><b><span style="color: #5900b3">
<div class="ToggleTriggerAnchor bbCodeSpoilerContainer">
<button type="button" class="button bbCodeSpoilerButton ToggleTrigger Tooltip JsOnly" data-target="> .SpoilerTarget"><span>Spoiler</span></button>
<div class="SpoilerTarget bbCodeSpoilerText">Video<br>
<br>
Format: MPEG Video<br>
Format version: Version 2<br>
Format profile: Main@Main<br>
Format settings: CustomMatrix / BVOP<br>
Format settings, BVOP: Yes<br>
Format settings, Matrix: Custom<br>
Format settings, GOP: Variable<br>
Format settings, picture struc: Frame<br>
Duration: 501 ms<br>
Bit rate mode: Variable<br>
Bit rate: 3 096 kb/s<br>
Maximum bit rate: 9 800 kb/s<br>
Width: 720 pixels<br>
Height: 480 pixels<br>
Display aspect ratio: 4:3<br>
Frame rate: 29.970 (30000/1001) FPS<br>
Standard: NTSC<br>
Color space: YUV<br>
Chroma subsampling: 4:2:0<br>
Bit depth: 8 bits<br>
Scan type: Interlaced<br>
Scan order: Top Field First<br>
Compression mode: Lossy<br>
Bits/(Pixel*Frame): 0.299<br>
Time code of first frame: 00:59:59:00<br>
Time code source: Group of pictures header<br>
Stream size: 189 KiB (0%)<br>
<br>
Audio<br>
<br>
ID: 189 (0xBD)-128 (0x80)<br>
Format: AC-3<br>
Format/Info: Audio Coding 3<br>
Commercial name: Dolby Digital<br>
Muxing mode: DVD-Video<br>
Duration: 2 min 51 s<br>
Bit rate mode: Constant<br>
Bit rate: 384 kb/s<br>
Channel(s): 6 channels<br>
Channel layout: L R C LFE Ls Rs<br>
Sampling rate: 48.0 kHz<br>
Frame rate: 31.250 FPS (1536 SPF)<br>
Compression mode: Lossy<br>
Stream size: 7.83 MiB (11%)<br>
Service kind: Complete Main</div>
</div></span></b></i><br>
<br>
<i><b>
<div class="bbCodeBlock bbCodeVfcHH HiddenContent">
<div class="attribution type">Hidden Content:</div>
<blockquote>You must either reply or click 'Like' to see the hidden information contained here.</blockquote>
</div></b></i><br>
​</div>
<div class="messageTextEndMarker">&nbsp;</div>
</blockquote>
</article>]]></description>
                <author><![CDATA[Synthwave_Evans]]></author>
                </item>

                </channel></rss>